<svg xmlns="http://www.w3.org/2000/svg" viewBox="0 0 34 57.77"><defs><style>.cls-1{opacity:0.54;}</style></defs><title>자산 2</title><g id="레이어_2" data-name="레이어 2"><g id="iconsimages"><path class="cls-1" d="M22.62,2.18a6.11,6.11,0,1,0-8.09,9,14.74,14.74,0,0,0-2,2.09,1.12,1.12,0,0,0,.13,1.07S2.5,17.4,1.67,17.89A8.4,8.4,0,0,0,0,19.38V52c0,1.86,16,5.8,17.13,5.8a4.89,4.89,0,0,0,.49,0h.19c2-.27,16.19-4,16.19-5.78V19.38a1.76,1.76,0,0,0-.79-1.49c-.83-.49-10.27-3.56-10.27-3.56a1,1,0,0,0,.22-1.07,13.84,13.84,0,0,0-1.9-2,6.07,6.07,0,0,0,1.55-8.8M15,45.25,4.08,48.5,4,22.93l11-2.68ZM30,22.5V48.55l-11-3v-25ZM18,10.29A4.09,4.09,0,1,1,22.1,6.21,4.09,4.09,0,0,1,18,10.29Z"/></g></g></svg>