<svg xmlns="http://www.w3.org/2000/svg" xmlns:xlink="http://www.w3.org/1999/xlink" width="133" height="45" viewBox="0 0 133 45">
  <defs>
    <clipPath id="clip-iPhone_X_XS_1">
      <rect width="133" height="45"/>
    </clipPath>
  </defs>
  <g id="iPhone_X_XS_1" data-name="iPhone X/XS – 1" clip-path="url(#clip-iPhone_X_XS_1)">
    <g id="그룹_2562" data-name="그룹 2562" transform="translate(-103 -39)">
      <text id="LANTERN" transform="translate(181 73)" fill="#8e8e93" font-size="20" font-family="HelveticaNeue-Bold, Helvetica Neue" font-weight="700" letter-spacing="0.03em"><tspan x="-49.21" y="0">LANTERN</tspan></text>
      <path id="패스_1" data-name="패스 1" d="M23.834,0a3.287,3.287,0,0,0-.58.073q-.272.054-.653.109c-.254.036-.544.109-.834.181-.617.145-1.306.326-2.031.544a8.881,8.881,0,0,0-1.125.435c-.363.145-.762.29-1.161.435-.762.29-1.56.58-2.285.871s-1.415.544-2,.762c-.726.29-1.306.508-1.632.653A3,3,0,1,0,7.582,8.489,5.517,5.517,0,0,0,6.6,9.5a.627.627,0,0,0,.073.544S1.451,11.536,1.052,11.79,0,12.515,0,12.515V28.586c0,.907,8.126,2.866,8.634,2.866h.8c.979-.145,8.344-1.959,8.344-2.866V12.515a2.6,2.6,0,0,0-.689-.726c-.4-.254-5.224-1.741-5.224-1.741A.69.69,0,0,0,11.9,9.5a9.829,9.829,0,0,0-.979-1.016,2.957,2.957,0,0,0,1.342-2.539,3.119,3.119,0,0,0-.617-1.814q.544-.163,1.632-.435c.617-.181,1.306-.363,2.031-.58.762-.218,1.524-.435,2.322-.653.472-.109.871-.218,1.233-.326.4-.109.762-.218,1.161-.326.726-.254,1.415-.508,1.959-.762a7.589,7.589,0,0,0,.762-.363l.58-.29c.326-.181.508-.29.508-.29ZM6.53,25.249l-4.752,1.6L1.415,14.257,6.53,12.951ZM15.6,14.039V26.881l-5.8-1.487V13.06ZM9.287,8.017a2.031,2.031,0,1,1,2.031-2.031A2.028,2.028,0,0,1,9.287,8.017Z" transform="translate(108.268 45.409)" fill="#ffc71f"/>
    </g>
  </g>
</svg>
